<?xml version="1.0" encoding="utf-8"?>
<!-- Generator: Adobe Illustrator 24.3.0, SVG Export Plug-In . SVG Version: 6.00 Build 0)  -->
<svg version="1.1" id="Lager_1" xmlns="http://www.w3.org/2000/svg" xmlns:xlink="http://www.w3.org/1999/xlink" x="0px" y="0px"
	 viewBox="0 0 396.09 85.04" style="enable-background:new 0 0 396.09 85.04;" xml:space="preserve">
<style type="text/css">
	.st0{fill:#575756;}
	.st1{clip-path:url(#SVGID_2_);}
	.st2{fill:url(#SVGID_3_);}
	.st3{fill:#E5A100;}
	.st4{fill:url(#SVGID_4_);}
	.st5{clip-path:url(#SVGID_6_);}
	.st6{fill:url(#SVGID_7_);}
	.st7{fill:#506919;}
	.st8{fill:url(#SVGID_8_);}
</style>
<g>
	<path class="st0" d="M177.58,45.16V30.41c0-0.63,0.32-0.95,0.95-0.95h8.71c0.48,0,0.71,0.4,0.71,1.19v0.74
		c0,0.79-0.24,1.19-0.71,1.19h-6v3.45h5.35c0.48,0,0.71,0.4,0.71,1.19v0.74c0,0.79-0.24,1.19-0.71,1.19h-5.35v3.86h6.02
		c0.48,0,0.71,0.4,0.71,1.19v0.74c0,0.79-0.24,1.19-0.71,1.19h-8.73C177.9,46.11,177.58,45.79,177.58,45.16z"/>
	<path class="st0" d="M189.67,44.61c0-0.25,0.15-0.61,0.45-1.07s0.57-0.69,0.81-0.69c0.03,0,0.32,0.11,0.86,0.33
		c0.54,0.22,1.03,0.33,1.48,0.33c0.97,0,1.45-0.36,1.45-1.07c0-0.38-0.16-0.69-0.49-0.92c-0.33-0.23-0.72-0.42-1.19-0.58
		c-0.47-0.16-0.94-0.35-1.4-0.57c-0.47-0.22-0.86-0.59-1.19-1.09c-0.33-0.51-0.49-1.16-0.49-1.95c0-1.19,0.39-2.13,1.18-2.82
		c0.79-0.69,1.85-1.04,3.2-1.04c0.63,0,1.24,0.06,1.81,0.19c1.14,0.25,1.71,0.69,1.71,1.31c0,0.21-0.12,0.55-0.36,1.03
		c-0.24,0.48-0.46,0.73-0.67,0.73c-0.02,0-0.25-0.08-0.7-0.25c-0.45-0.17-0.89-0.25-1.32-0.25c-0.86,0-1.28,0.29-1.28,0.86
		c0,0.32,0.16,0.58,0.49,0.77c0.33,0.2,0.72,0.38,1.19,0.55c0.47,0.17,0.94,0.37,1.4,0.62c0.47,0.25,0.86,0.63,1.19,1.17
		c0.33,0.53,0.49,1.19,0.49,1.96c0,1.25-0.41,2.26-1.23,3.01c-0.82,0.75-1.84,1.13-3.07,1.13c-1.23,0-2.26-0.15-3.08-0.44
		C190.08,45.57,189.67,45.15,189.67,44.61z"/>
	<path class="st0" d="M200.33,45.4V28.93c0-0.51,0.48-0.76,1.43-0.76h0.67c0.95,0,1.43,0.25,1.43,0.76v9.42l0.1,0.02l2.88-4.31
		c0.21-0.3,0.69-0.45,1.45-0.45h0.88c0.89,0,1.33,0.12,1.33,0.36c0,0.13-0.07,0.29-0.21,0.48l-3.31,4.71l3.88,6.14
		c0.13,0.22,0.19,0.39,0.19,0.5c0,0.24-0.45,0.36-1.36,0.36h-1c-0.78,0-1.25-0.15-1.43-0.45l-3.31-5.47l-0.1,0.02v5.14
		c0,0.51-0.48,0.76-1.43,0.76h-0.67C200.81,46.16,200.33,45.91,200.33,45.4z"/>
	<path class="st0" d="M213.99,31.62c-0.95,0-1.43-0.25-1.43-0.76v-1.93c0-0.51,0.48-0.76,1.43-0.76h0.67c0.95,0,1.43,0.25,1.43,0.76
		v1.93c0,0.51-0.48,0.76-1.43,0.76H213.99z M212.56,45.4V34.38c0-0.51,0.48-0.76,1.43-0.76h0.67c0.95,0,1.43,0.25,1.43,0.76V45.4
		c0,0.51-0.48,0.76-1.43,0.76h-0.67C213.04,46.16,212.56,45.91,212.56,45.4z"/>
	<path class="st0" d="M223.34,43.52l0.64-0.1c0.21,0,0.38,0.23,0.52,0.7c0.14,0.47,0.21,0.8,0.21,1.01c0,0.78-0.76,1.17-2.28,1.17
		c-2.32,0-3.47-1.29-3.47-3.86V28.93c0-0.51,0.48-0.76,1.43-0.76h0.67c0.95,0,1.43,0.25,1.43,0.76v13.56
		C222.48,43.18,222.77,43.52,223.34,43.52z"/>
	<path class="st0" d="M225.27,44.61c0-0.25,0.15-0.61,0.45-1.07s0.57-0.69,0.81-0.69c0.03,0,0.32,0.11,0.86,0.33
		c0.54,0.22,1.03,0.33,1.48,0.33c0.97,0,1.45-0.36,1.45-1.07c0-0.38-0.16-0.69-0.49-0.92c-0.33-0.23-0.72-0.42-1.19-0.58
		c-0.47-0.16-0.94-0.35-1.4-0.57c-0.47-0.22-0.86-0.59-1.19-1.09c-0.33-0.51-0.49-1.16-0.49-1.95c0-1.19,0.39-2.13,1.18-2.82
		c0.79-0.69,1.85-1.04,3.2-1.04c0.63,0,1.24,0.06,1.81,0.19c1.14,0.25,1.71,0.69,1.71,1.31c0,0.21-0.12,0.55-0.36,1.03
		c-0.24,0.48-0.46,0.73-0.67,0.73c-0.02,0-0.25-0.08-0.7-0.25c-0.45-0.17-0.89-0.25-1.32-0.25c-0.86,0-1.28,0.29-1.28,0.86
		c0,0.32,0.16,0.58,0.49,0.77c0.33,0.2,0.72,0.38,1.19,0.55c0.47,0.17,0.94,0.37,1.4,0.62c0.47,0.25,0.86,0.63,1.19,1.17
		c0.33,0.53,0.49,1.19,0.49,1.96c0,1.25-0.41,2.26-1.23,3.01c-0.82,0.75-1.84,1.13-3.07,1.13c-1.23,0-2.26-0.15-3.08-0.44
		C225.68,45.57,225.27,45.15,225.27,44.61z"/>
	<path class="st0" d="M240.57,43.52l0.64-0.1c0.21,0,0.38,0.23,0.52,0.7c0.14,0.47,0.21,0.8,0.21,1.01c0,0.78-0.76,1.17-2.28,1.17
		c-2.32,0-3.47-1.29-3.47-3.86v-6h-0.38c-0.48,0-0.71-0.4-0.71-1.19v-0.4c0-0.79,0.24-1.19,0.71-1.19h0.38l0.31-2.26
		c0.08-0.51,0.51-0.76,1.28-0.76h0.74c0.79,0,1.19,0.25,1.19,0.76v2.26h1.17c0.48,0,0.71,0.4,0.71,1.19v0.4
		c0,0.79-0.24,1.19-0.71,1.19h-1.17v6.04C239.71,43.18,240,43.52,240.57,43.52z"/>
	<path class="st0" d="M243.9,42.45v-8.07c0-0.51,0.48-0.76,1.43-0.76H246c0.95,0,1.43,0.25,1.43,0.76v7.54
		c0,0.98,0.48,1.48,1.43,1.48c0.79,0,1.43-0.46,1.9-1.38v-7.64c0-0.51,0.48-0.76,1.43-0.76h0.67c0.95,0,1.43,0.25,1.43,0.76v7.54
		c0,0.98,0.05,1.81,0.14,2.47l0.14,0.98c0,0.25-0.32,0.44-0.96,0.57c-0.64,0.13-1.12,0.19-1.44,0.19c-0.32,0-0.53-0.03-0.63-0.1
		c-0.1-0.06-0.19-0.17-0.25-0.32c-0.06-0.15-0.11-0.27-0.14-0.36c-0.03-0.09-0.07-0.24-0.11-0.46c-0.04-0.22-0.07-0.36-0.08-0.4
		c-0.38,0.51-0.88,0.94-1.51,1.29c-0.63,0.35-1.31,0.52-2.03,0.52c-1.19,0-2.07-0.31-2.64-0.94
		C244.19,44.73,243.9,43.76,243.9,42.45z"/>
	<path class="st0" d="M257.23,45.4v-7.54c0-1.19-0.05-2.02-0.14-2.5c-0.1-0.48-0.14-0.76-0.14-0.86c0-0.25,0.32-0.44,0.96-0.57
		c0.64-0.13,1.12-0.19,1.44-0.19c0.32,0,0.53,0.03,0.63,0.09c0.1,0.06,0.19,0.16,0.25,0.3c0.06,0.13,0.11,0.25,0.14,0.33
		c0.03,0.09,0.07,0.23,0.11,0.44c0.04,0.21,0.07,0.33,0.08,0.38c0.38-0.51,0.89-0.94,1.52-1.29c0.63-0.35,1.31-0.52,2.02-0.52
		c1.19,0,2.07,0.31,2.64,0.94c0.57,0.63,0.86,1.6,0.86,2.92v8.07c0,0.51-0.48,0.76-1.43,0.76h-0.67c-0.95,0-1.43-0.25-1.43-0.76
		v-7.54c0-0.98-0.48-1.48-1.43-1.48c-0.79,0-1.43,0.46-1.9,1.38v7.64c0,0.51-0.48,0.76-1.43,0.76h-0.67
		C257.7,46.16,257.23,45.91,257.23,45.4z"/>
	<path class="st0" d="M270.01,42.83c0-0.44,0.04-0.85,0.12-1.21c0.08-0.36,0.26-0.76,0.55-1.18c0.29-0.42,0.67-0.76,1.14-1.04
		c1.13-0.67,2.8-1,5.02-1v-0.78c0-0.9-0.62-1.36-1.86-1.36c-0.87,0-1.72,0.19-2.55,0.57c-0.29,0.13-0.45,0.19-0.5,0.19
		c-0.24,0-0.5-0.25-0.8-0.74c-0.29-0.49-0.44-0.88-0.44-1.17c0-0.43,0.44-0.81,1.32-1.14c0.88-0.33,1.96-0.5,3.22-0.5
		c3.41,0,5.12,1.33,5.12,3.97v4.47c0,0.98,0.05,1.81,0.14,2.47l0.14,0.98c0,0.25-0.32,0.44-0.96,0.57
		c-0.64,0.13-1.12,0.19-1.44,0.19c-0.32,0-0.53-0.03-0.63-0.1c-0.1-0.06-0.19-0.17-0.25-0.32c-0.06-0.15-0.11-0.27-0.14-0.36
		c-0.03-0.09-0.07-0.24-0.11-0.46c-0.04-0.22-0.07-0.36-0.08-0.4c-0.29,0.51-0.78,0.94-1.48,1.29c-0.7,0.35-1.37,0.52-2.02,0.52
		c-1.22,0-2.11-0.32-2.68-0.95C270.29,44.72,270.01,43.87,270.01,42.83z M273.5,42.47c0,0.32,0.1,0.57,0.31,0.76
		c0.21,0.19,0.52,0.29,0.93,0.29c0.41,0,0.82-0.14,1.21-0.43c0.4-0.29,0.69-0.64,0.88-1.07v-1.31
		C274.61,40.71,273.5,41.3,273.5,42.47z"/>
	<path class="st0" d="M288.21,44.21c0-0.36,0.18-0.81,0.55-1.33c0.36-0.52,0.67-0.78,0.93-0.78c0.1,0,0.3,0.09,0.62,0.26
		c0.98,0.56,1.94,0.83,2.88,0.83c1.49,0,2.24-0.58,2.24-1.74c0-0.51-0.24-0.94-0.71-1.29c-0.48-0.35-1.05-0.65-1.73-0.92
		c-0.67-0.26-1.34-0.56-2.01-0.9c-0.67-0.34-1.24-0.87-1.71-1.58c-0.48-0.71-0.71-1.61-0.71-2.68c0-1.07,0.29-1.99,0.86-2.75
		c1.03-1.38,2.63-2.07,4.78-2.07c1.21,0,2.22,0.17,3.05,0.52c0.82,0.35,1.24,0.73,1.24,1.14c0,0.35-0.15,0.78-0.45,1.3
		c-0.3,0.52-0.59,0.77-0.86,0.77c-0.06,0-0.21-0.06-0.43-0.17c-0.63-0.29-1.37-0.43-2.2-0.43c-0.83,0-1.41,0.14-1.74,0.43
		c-0.33,0.29-0.49,0.64-0.49,1.07c0,0.43,0.24,0.81,0.71,1.14c0.48,0.33,1.05,0.63,1.71,0.88c0.67,0.25,1.34,0.55,2.01,0.89
		c0.67,0.34,1.25,0.87,1.73,1.58c0.48,0.71,0.71,1.57,0.71,2.56s-0.15,1.84-0.46,2.55c-0.31,0.71-0.73,1.26-1.27,1.65
		c-1.05,0.76-2.33,1.14-3.85,1.14c-1.52,0-2.8-0.23-3.83-0.69C288.73,45.15,288.21,44.68,288.21,44.21z"/>
	<path class="st0" d="M305.8,43.52l0.64-0.1c0.21,0,0.38,0.23,0.52,0.7c0.14,0.47,0.21,0.8,0.21,1.01c0,0.78-0.76,1.17-2.28,1.17
		c-2.32,0-3.47-1.29-3.47-3.86v-6h-0.38c-0.48,0-0.71-0.4-0.71-1.19v-0.4c0-0.79,0.24-1.19,0.71-1.19h0.38l0.31-2.26
		c0.08-0.51,0.51-0.76,1.28-0.76h0.74c0.79,0,1.19,0.25,1.19,0.76v2.26h1.17c0.48,0,0.71,0.4,0.71,1.19v0.4
		c0,0.79-0.24,1.19-0.71,1.19h-1.17v6.04C304.94,43.18,305.23,43.52,305.8,43.52z"/>
	<path class="st0" d="M309.2,45.4v-7.54c0-1.19-0.05-2.02-0.14-2.5c-0.1-0.48-0.14-0.76-0.14-0.86c0-0.25,0.32-0.44,0.96-0.57
		c0.64-0.13,1.12-0.19,1.44-0.19c0.32,0,0.53,0.03,0.63,0.09c0.1,0.06,0.19,0.16,0.25,0.3c0.06,0.13,0.11,0.25,0.14,0.33
		c0.03,0.09,0.07,0.23,0.11,0.44c0.04,0.21,0.07,0.33,0.08,0.38c0.67-1.21,1.53-1.81,2.59-1.81c0.51,0,0.86,0.13,1.06,0.39
		c0.2,0.26,0.3,0.56,0.3,0.89s-0.07,0.75-0.21,1.25c-0.14,0.5-0.32,0.75-0.52,0.75c-0.1,0-0.26-0.03-0.5-0.09s-0.44-0.09-0.62-0.09
		c-0.79,0-1.43,0.4-1.9,1.19v7.64c0,0.51-0.48,0.76-1.43,0.76h-0.67C309.68,46.16,309.2,45.91,309.2,45.4z"/>
	<path class="st0" d="M317.43,42.83c0-0.44,0.04-0.85,0.12-1.21c0.08-0.36,0.26-0.76,0.55-1.18s0.67-0.76,1.14-1.04
		c1.13-0.67,2.8-1,5.02-1v-0.78c0-0.9-0.62-1.36-1.86-1.36c-0.87,0-1.72,0.19-2.55,0.57c-0.29,0.13-0.45,0.19-0.5,0.19
		c-0.24,0-0.5-0.25-0.8-0.74c-0.29-0.49-0.44-0.88-0.44-1.17c0-0.43,0.44-0.81,1.32-1.14c0.88-0.33,1.95-0.5,3.22-0.5
		c3.41,0,5.12,1.33,5.12,3.97v4.47c0,0.98,0.05,1.81,0.14,2.47l0.14,0.98c0,0.25-0.32,0.44-0.96,0.57
		c-0.64,0.13-1.12,0.19-1.44,0.19c-0.32,0-0.53-0.03-0.63-0.1c-0.1-0.06-0.19-0.17-0.25-0.32s-0.11-0.27-0.14-0.36
		s-0.07-0.24-0.11-0.46c-0.04-0.22-0.07-0.36-0.08-0.4c-0.29,0.51-0.78,0.94-1.48,1.29c-0.7,0.35-1.37,0.52-2.02,0.52
		c-1.22,0-2.11-0.32-2.68-0.95C317.71,44.72,317.43,43.87,317.43,42.83z M321.05,32.36c-0.95,0-1.43-0.25-1.43-0.76v-1.43
		c0-0.51,0.48-0.76,1.43-0.76s1.43,0.25,1.43,0.76v1.43C322.48,32.1,322,32.36,321.05,32.36z M320.93,42.47
		c0,0.32,0.1,0.57,0.31,0.76c0.21,0.19,0.52,0.29,0.93,0.29c0.41,0,0.82-0.14,1.21-0.43c0.4-0.29,0.69-0.64,0.88-1.07v-1.31
		C322.04,40.71,320.93,41.3,320.93,42.47z M325.33,32.36c-0.95,0-1.43-0.25-1.43-0.76v-1.43c0-0.51,0.48-0.76,1.43-0.76
		c0.95,0,1.43,0.25,1.43,0.76v1.43C326.76,32.1,326.29,32.36,325.33,32.36z"/>
	<path class="st0" d="M330.88,45.4v-7.54c0-1.19-0.05-2.02-0.14-2.5c-0.09-0.48-0.14-0.76-0.14-0.86c0-0.25,0.32-0.44,0.96-0.57
		c0.64-0.13,1.12-0.19,1.44-0.19c0.32,0,0.53,0.03,0.63,0.09c0.1,0.06,0.19,0.16,0.25,0.3c0.06,0.13,0.11,0.25,0.14,0.33
		c0.03,0.09,0.07,0.23,0.11,0.44c0.04,0.21,0.07,0.33,0.08,0.38c0.38-0.51,0.89-0.94,1.52-1.29c0.63-0.35,1.31-0.52,2.02-0.52
		c1.19,0,2.07,0.31,2.64,0.94c0.57,0.63,0.86,1.6,0.86,2.92v8.07c0,0.51-0.48,0.76-1.43,0.76h-0.67c-0.95,0-1.43-0.25-1.43-0.76
		v-7.54c0-0.98-0.48-1.48-1.43-1.48c-0.79,0-1.43,0.46-1.9,1.38v7.64c0,0.51-0.48,0.76-1.43,0.76h-0.67
		C331.35,46.16,330.88,45.91,330.88,45.4z"/>
	<path class="st0" d="M343.23,47.87c0-1.29,0.72-2.21,2.17-2.76l0.02-0.1c-0.68-0.35-1.02-0.94-1.02-1.76c0-0.82,0.48-1.49,1.43-2
		c-1.29-0.71-1.93-1.84-1.93-3.39c0-1.55,0.47-2.67,1.42-3.36c0.94-0.69,2.18-1.04,3.7-1.04c0.62,0,1.23,0.06,1.83,0.19h3.83
		c0.48,0,0.71,0.4,0.71,1.19v0.4c0,0.75-0.19,1.12-0.58,1.12s-0.73-0.03-1.01-0.1l-0.05,0.1c0.25,0.33,0.38,0.78,0.38,1.33
		c0,1.41-0.45,2.47-1.34,3.17c-0.9,0.7-2.07,1.05-3.51,1.05c-0.97,0-1.45,0.21-1.45,0.64c0,0.46,0.63,0.75,1.88,0.86
		c1.25,0.11,2.41,0.37,3.47,0.79c0.52,0.21,0.96,0.56,1.32,1.06c0.36,0.5,0.54,1.11,0.54,1.84c0,1.22-0.56,2.2-1.69,2.94
		s-2.61,1.11-4.45,1.11C345.12,51.16,343.23,50.06,343.23,47.87z M346.66,47.3c0,0.71,0.83,1.07,2.48,1.07
		c1.65,0,2.47-0.39,2.47-1.17c0-0.37-0.27-0.63-0.8-0.8c-0.53-0.17-1.49-0.3-2.87-0.39C347.08,46.32,346.66,46.75,346.66,47.3z
		 M347.73,38.96c0.33,0.28,0.76,0.42,1.29,0.42s0.95-0.14,1.28-0.42c0.33-0.28,0.5-0.7,0.5-1.26c0-0.56-0.17-0.98-0.5-1.26
		s-0.76-0.42-1.28-0.42s-0.95,0.14-1.29,0.42s-0.5,0.7-0.5,1.26C347.23,38.26,347.39,38.68,347.73,38.96z"/>
	<path class="st0" d="M357.13,45.4v-7.54c0-1.19-0.05-2.02-0.14-2.5c-0.09-0.48-0.14-0.76-0.14-0.86c0-0.25,0.32-0.44,0.96-0.57
		c0.64-0.13,1.12-0.19,1.44-0.19c0.32,0,0.53,0.03,0.63,0.09c0.1,0.06,0.19,0.16,0.25,0.3c0.06,0.13,0.11,0.25,0.14,0.33
		c0.03,0.09,0.07,0.23,0.11,0.44c0.04,0.21,0.07,0.33,0.08,0.38c0.38-0.51,0.89-0.94,1.52-1.29c0.63-0.35,1.31-0.52,2.02-0.52
		c1.19,0,2.07,0.31,2.64,0.94c0.57,0.63,0.86,1.6,0.86,2.92v8.07c0,0.51-0.48,0.76-1.43,0.76h-0.67c-0.95,0-1.43-0.25-1.43-0.76
		v-7.54c0-0.98-0.48-1.48-1.43-1.48c-0.79,0-1.43,0.46-1.9,1.38v7.64c0,0.51-0.48,0.76-1.43,0.76h-0.67
		C357.6,46.16,357.13,45.91,357.13,45.4z"/>
	<path class="st0" d="M369.9,42.83c0-0.44,0.04-0.85,0.12-1.21c0.08-0.36,0.26-0.76,0.55-1.18c0.29-0.42,0.67-0.76,1.14-1.04
		c1.13-0.67,2.8-1,5.02-1v-0.78c0-0.9-0.62-1.36-1.86-1.36c-0.87,0-1.72,0.19-2.55,0.57c-0.29,0.13-0.45,0.19-0.5,0.19
		c-0.24,0-0.5-0.25-0.8-0.74c-0.29-0.49-0.44-0.88-0.44-1.17c0-0.43,0.44-0.81,1.32-1.14c0.88-0.33,1.96-0.5,3.22-0.5
		c3.41,0,5.12,1.33,5.12,3.97v4.47c0,0.98,0.05,1.81,0.14,2.47l0.14,0.98c0,0.25-0.32,0.44-0.96,0.57
		c-0.64,0.13-1.12,0.19-1.44,0.19s-0.53-0.03-0.63-0.1c-0.1-0.06-0.19-0.17-0.25-0.32s-0.11-0.27-0.14-0.36
		c-0.03-0.09-0.07-0.24-0.11-0.46s-0.07-0.36-0.08-0.4c-0.29,0.51-0.78,0.94-1.48,1.29c-0.7,0.35-1.37,0.52-2.02,0.52
		c-1.22,0-2.11-0.32-2.68-0.95C370.19,44.72,369.9,43.87,369.9,42.83z M373.52,32.36c-0.95,0-1.43-0.25-1.43-0.76v-1.43
		c0-0.51,0.48-0.76,1.43-0.76c0.95,0,1.43,0.25,1.43,0.76v1.43C374.95,32.1,374.47,32.36,373.52,32.36z M373.4,42.47
		c0,0.32,0.1,0.57,0.31,0.76c0.21,0.19,0.52,0.29,0.93,0.29c0.41,0,0.82-0.14,1.21-0.43c0.4-0.29,0.69-0.64,0.88-1.07v-1.31
		C374.51,40.71,373.4,41.3,373.4,42.47z M377.81,32.36c-0.95,0-1.43-0.25-1.43-0.76v-1.43c0-0.51,0.48-0.76,1.43-0.76
		c0.95,0,1.43,0.25,1.43,0.76v1.43C379.23,32.1,378.76,32.36,377.81,32.36z"/>
	<path class="st0" d="M382.61,44.61c0-0.25,0.15-0.61,0.45-1.07c0.3-0.46,0.57-0.69,0.81-0.69c0.03,0,0.32,0.11,0.86,0.33
		c0.54,0.22,1.03,0.33,1.48,0.33c0.97,0,1.45-0.36,1.45-1.07c0-0.38-0.16-0.69-0.49-0.92c-0.33-0.23-0.72-0.42-1.19-0.58
		c-0.47-0.16-0.94-0.35-1.4-0.57c-0.47-0.22-0.86-0.59-1.19-1.09c-0.33-0.51-0.49-1.16-0.49-1.95c0-1.19,0.39-2.13,1.18-2.82
		c0.78-0.69,1.85-1.04,3.2-1.04c0.63,0,1.24,0.06,1.81,0.19c1.14,0.25,1.71,0.69,1.71,1.31c0,0.21-0.12,0.55-0.36,1.03
		c-0.24,0.48-0.46,0.73-0.67,0.73c-0.02,0-0.25-0.08-0.7-0.25c-0.45-0.17-0.89-0.25-1.32-0.25c-0.86,0-1.28,0.29-1.28,0.86
		c0,0.32,0.16,0.58,0.49,0.77s0.72,0.38,1.19,0.55c0.47,0.17,0.94,0.37,1.4,0.62c0.47,0.25,0.86,0.63,1.19,1.17
		c0.32,0.53,0.49,1.19,0.49,1.96c0,1.25-0.41,2.26-1.23,3.01c-0.82,0.75-1.84,1.13-3.07,1.13c-1.23,0-2.26-0.15-3.08-0.44
		C383.02,45.57,382.61,45.15,382.61,44.61z"/>
	<path class="st0" d="M177.58,71.6V56.85c0-0.63,0.32-0.95,0.95-0.95h8.71c0.48,0,0.71,0.4,0.71,1.19v0.74
		c0,0.79-0.24,1.19-0.71,1.19h-6v3.45h5.35c0.48,0,0.71,0.4,0.71,1.19v0.74c0,0.79-0.24,1.19-0.71,1.19h-5.35v3.86h6.02
		c0.48,0,0.71,0.4,0.71,1.19v0.74c0,0.79-0.24,1.19-0.71,1.19h-8.73C177.9,72.55,177.58,72.24,177.58,71.6z"/>
	<path class="st0" d="M190.41,71.84v-7.54c0-1.19-0.05-2.02-0.14-2.5c-0.1-0.48-0.14-0.76-0.14-0.86c0-0.25,0.32-0.44,0.96-0.57
		c0.64-0.13,1.12-0.19,1.44-0.19c0.32,0,0.53,0.03,0.63,0.09c0.1,0.06,0.19,0.16,0.25,0.3c0.06,0.13,0.11,0.25,0.14,0.33
		c0.03,0.09,0.07,0.23,0.11,0.44c0.04,0.21,0.07,0.33,0.08,0.38c0.38-0.51,0.89-0.94,1.52-1.29c0.63-0.35,1.31-0.52,2.02-0.52
		c1.19,0,2.07,0.31,2.64,0.94c0.57,0.63,0.86,1.6,0.86,2.92v8.07c0,0.51-0.48,0.76-1.43,0.76h-0.67c-0.95,0-1.43-0.25-1.43-0.76
		v-7.54c0-0.98-0.48-1.48-1.43-1.48c-0.79,0-1.43,0.46-1.9,1.38v7.64c0,0.51-0.48,0.76-1.43,0.76h-0.67
		C190.88,72.6,190.41,72.35,190.41,71.84z"/>
	<path class="st0" d="M204.72,71.06c-1.02-1.12-1.53-2.73-1.53-4.84c0-2.11,0.51-3.69,1.53-4.74s2.43-1.57,4.21-1.57
		c1.78,0,3.09,0.57,3.93,1.71c0.83,1.14,1.25,2.62,1.25,4.43c0,0.19-0.16,0.47-0.49,0.85c-0.33,0.37-0.57,0.56-0.73,0.56h-6.07
		c0.08,0.9,0.35,1.55,0.81,1.93c0.46,0.38,1.05,0.57,1.76,0.57c0.71,0,1.4-0.12,2.05-0.37c0.65-0.25,0.98-0.37,1-0.37
		c0.24,0,0.5,0.23,0.8,0.7c0.29,0.47,0.44,0.84,0.44,1.11c0,0.52-0.5,0.94-1.49,1.25c-0.99,0.31-1.92,0.46-2.8,0.46
		C207.3,72.74,205.74,72.18,204.72,71.06z M210.68,65.1c0-0.73-0.14-1.31-0.43-1.75c-0.29-0.44-0.71-0.65-1.29-0.65
		c-1.17,0-1.89,0.8-2.14,2.4H210.68z"/>
	<path class="st0" d="M216.49,71.84v-7.54c0-1.19-0.05-2.02-0.14-2.5c-0.1-0.48-0.14-0.76-0.14-0.86c0-0.25,0.32-0.44,0.96-0.57
		c0.64-0.13,1.12-0.19,1.44-0.19c0.32,0,0.53,0.03,0.63,0.09c0.1,0.06,0.19,0.16,0.25,0.3c0.06,0.13,0.11,0.25,0.14,0.33
		c0.03,0.09,0.07,0.23,0.11,0.44c0.04,0.21,0.07,0.33,0.08,0.38c0.67-1.21,1.53-1.81,2.59-1.81c0.51,0,0.86,0.13,1.06,0.39
		c0.2,0.26,0.3,0.56,0.3,0.89c0,0.33-0.07,0.75-0.21,1.25c-0.14,0.5-0.32,0.75-0.52,0.75c-0.1,0-0.26-0.03-0.5-0.09
		c-0.24-0.06-0.44-0.09-0.62-0.09c-0.79,0-1.43,0.4-1.9,1.19v7.64c0,0.51-0.48,0.76-1.43,0.76h-0.67
		C216.96,72.6,216.49,72.35,216.49,71.84z"/>
	<path class="st0" d="M224.29,74.31c0-1.29,0.72-2.21,2.17-2.76l0.02-0.1c-0.68-0.35-1.02-0.94-1.02-1.76c0-0.82,0.48-1.49,1.43-2
		c-1.28-0.71-1.93-1.84-1.93-3.39c0-1.55,0.47-2.67,1.42-3.36c0.94-0.69,2.18-1.04,3.7-1.04c0.62,0,1.23,0.06,1.83,0.19h3.83
		c0.48,0,0.71,0.4,0.71,1.19v0.4c0,0.75-0.19,1.12-0.58,1.12c-0.39,0-0.73-0.03-1.01-0.1l-0.05,0.1c0.25,0.33,0.38,0.78,0.38,1.33
		c0,1.41-0.45,2.47-1.34,3.17c-0.9,0.7-2.07,1.05-3.51,1.05c-0.97,0-1.45,0.21-1.45,0.64c0,0.46,0.63,0.75,1.88,0.86
		c1.25,0.11,2.41,0.37,3.47,0.79c0.52,0.21,0.96,0.56,1.32,1.06c0.36,0.5,0.54,1.11,0.54,1.84c0,1.22-0.56,2.2-1.69,2.94
		c-1.13,0.74-2.61,1.11-4.45,1.11C226.18,77.6,224.29,76.5,224.29,74.31z M227.72,73.74c0,0.71,0.82,1.07,2.47,1.07
		c1.65,0,2.47-0.39,2.47-1.17c0-0.37-0.27-0.63-0.8-0.8c-0.53-0.17-1.49-0.3-2.87-0.39C228.15,72.76,227.72,73.19,227.72,73.74z
		 M228.79,65.4c0.33,0.28,0.76,0.42,1.28,0.42s0.95-0.14,1.29-0.42c0.33-0.28,0.5-0.7,0.5-1.26c0-0.56-0.17-0.98-0.5-1.26
		c-0.33-0.28-0.76-0.42-1.29-0.42s-0.95,0.14-1.28,0.42s-0.5,0.7-0.5,1.26C228.29,64.7,228.46,65.12,228.79,65.4z"/>
	<path class="st0" d="M239.55,58.06c-0.95,0-1.43-0.25-1.43-0.76v-1.93c0-0.51,0.48-0.76,1.43-0.76h0.67c0.95,0,1.43,0.25,1.43,0.76
		v1.93c0,0.51-0.48,0.76-1.43,0.76H239.55z M238.12,71.84V60.82c0-0.51,0.48-0.76,1.43-0.76h0.67c0.95,0,1.43,0.25,1.43,0.76v11.02
		c0,0.51-0.48,0.76-1.43,0.76h-0.67C238.59,72.6,238.12,72.35,238.12,71.84z"/>
	<path class="st0" d="M262.46,69.96l0.64-0.1c0.21,0,0.38,0.23,0.52,0.7c0.14,0.47,0.21,0.8,0.21,1.01c0,0.78-0.76,1.17-2.28,1.17
		c-1.14,0-2.01-0.32-2.59-0.95c-1.27,0.64-2.71,0.95-4.31,0.95c-1.6,0-2.9-0.45-3.89-1.36c-0.99-0.9-1.49-2.13-1.49-3.69
		c0-2.14,0.92-3.56,2.76-4.26v-0.09c-0.68-0.29-1.22-0.73-1.62-1.34c-0.4-0.61-0.6-1.32-0.6-2.13c0-1.27,0.44-2.28,1.32-3.03
		c0.88-0.75,2.13-1.13,3.75-1.13c1.62,0,2.43,0.33,2.43,1c0,0.56-0.09,1.02-0.26,1.39c-0.17,0.37-0.37,0.56-0.57,0.56l-0.43-0.09
		c-0.27-0.05-0.52-0.07-0.74-0.07c-0.63,0-1.11,0.17-1.44,0.52c-0.33,0.35-0.49,0.83-0.49,1.43c0,0.6,0.22,1.08,0.65,1.44
		c0.44,0.36,1.04,0.54,1.8,0.54h2.24l0.31-2.26c0.08-0.51,0.51-0.76,1.28-0.76h0.74c0.79,0,1.19,0.25,1.19,0.76v2.26h1.17
		c0.48,0,0.71,0.4,0.71,1.19v0.4c0,0.79-0.24,1.19-0.71,1.19h-1.17v3.74C261.61,69.62,261.89,69.96,262.46,69.96z M252.85,67.65
		c0,0.73,0.21,1.3,0.64,1.7c0.43,0.4,1.05,0.61,1.88,0.61c0.82,0,1.73-0.21,2.71-0.64V65.2h-2.45
		C253.78,65.2,252.85,66.02,252.85,67.65z"/>
	<path class="st0" d="M270.93,71.84V56.61c0-0.51,0.48-0.76,1.43-0.76h1.26c0.76,0,1.26,0.21,1.5,0.64l4.19,7.45l4.24-7.45
		c0.24-0.43,0.74-0.64,1.5-0.64h1.24c0.95,0,1.43,0.25,1.43,0.76v15.23c0,0.51-0.48,0.76-1.43,0.76h-0.69
		c-0.95,0-1.43-0.25-1.43-0.76v-9.85l-0.1-0.02l-3.45,6.16c-0.22,0.3-0.54,0.45-0.95,0.45h-0.69c-0.41,0-0.73-0.15-0.95-0.45
		l-3.45-6.16l-0.1,0.02v9.85c0,0.51-0.48,0.76-1.43,0.76h-0.69C271.41,72.6,270.93,72.35,270.93,71.84z"/>
	<path class="st0" d="M292.18,58.06c-0.95,0-1.43-0.25-1.43-0.76v-1.93c0-0.51,0.48-0.76,1.43-0.76h0.67c0.95,0,1.43,0.25,1.43,0.76
		v1.93c0,0.51-0.48,0.76-1.43,0.76H292.18z M290.76,71.84V60.82c0-0.51,0.48-0.76,1.43-0.76h0.67c0.95,0,1.43,0.25,1.43,0.76v11.02
		c0,0.51-0.48,0.76-1.43,0.76h-0.67C291.23,72.6,290.76,72.35,290.76,71.84z"/>
	<path class="st0" d="M301.54,69.96l0.64-0.1c0.21,0,0.38,0.23,0.52,0.7c0.14,0.47,0.21,0.8,0.21,1.01c0,0.78-0.76,1.17-2.28,1.17
		c-2.32,0-3.47-1.29-3.47-3.86V55.37c0-0.51,0.48-0.76,1.43-0.76h0.67c0.95,0,1.43,0.25,1.43,0.76v13.56
		C300.68,69.62,300.96,69.96,301.54,69.96z"/>
	<path class="st0" d="M302.82,74.72l0.71,0.09c0.57,0,0.86-0.34,0.86-1.02V60.82c0-0.51,0.48-0.76,1.43-0.76h0.67
		c0.95,0,1.43,0.25,1.43,0.76v12.92c0,1.25-0.32,2.21-0.96,2.87c-0.64,0.66-1.46,0.99-2.44,0.99c-0.98,0-1.65-0.09-2.01-0.27
		c-0.36-0.18-0.54-0.47-0.54-0.86s0.09-0.78,0.26-1.17C302.4,74.91,302.6,74.72,302.82,74.72z M305.82,58.06
		c-0.95,0-1.43-0.25-1.43-0.76v-1.93c0-0.51,0.48-0.76,1.43-0.76h0.67c0.95,0,1.43,0.25,1.43,0.76v1.93c0,0.51-0.48,0.76-1.43,0.76
		H305.82z"/>
	<path class="st0" d="M311.77,71.09c-0.98-1.1-1.48-2.69-1.48-4.77c0-2.08,0.49-3.66,1.48-4.76c0.98-1.09,2.42-1.64,4.31-1.64
		c1.89,0,3.32,0.55,4.3,1.64c0.98,1.09,1.46,2.68,1.46,4.76c0,2.08-0.49,3.67-1.46,4.77c-0.98,1.1-2.41,1.65-4.3,1.65
		C314.19,72.74,312.75,72.19,311.77,71.09z M313.91,58.8c-0.95,0-1.43-0.25-1.43-0.76v-1.43c0-0.51,0.48-0.76,1.43-0.76
		s1.43,0.25,1.43,0.76v1.43C315.34,58.54,314.86,58.8,313.91,58.8z M313.86,66.33c0,2.42,0.73,3.63,2.2,3.63
		c1.47,0,2.2-1.21,2.2-3.63c0-2.42-0.73-3.63-2.2-3.63C314.6,62.7,313.86,63.91,313.86,66.33z M318.19,58.8
		c-0.95,0-1.43-0.25-1.43-0.76v-1.43c0-0.51,0.48-0.76,1.43-0.76s1.43,0.25,1.43,0.76v1.43C319.62,58.54,319.15,58.8,318.19,58.8z"
		/>
</g>
<g>
	<g>
		<defs>
			<path id="SVGID_1_" d="M172.58,29.37L145.8,46.82c-1.04-3.23-3.18-9.42-5.44-15.97c-0.17-0.49-0.34-0.98-0.51-1.47H172.58z
				 M113.72,63.01c-2.01,0.12-3.78,0.2-5.34,0.2c-7.78,0-10.7-2.13-14.47-13.29l-0.11-0.34l-4.05,2.64
				c-1.94-6.87-3.87-13.58-6.23-20.58c-4.22-12.49-6.8-12.49-17.97-11.84c-5.75,0.33-20.04,1.62-25.82,2.2
				c-5.78,0.57-6.77,4.87-4.75,11.18c2.02,6.32,9.39,27.18,11.93,35.08c2.54,7.89,9.56,7.75,12.49,7.75c2.93,0,39.69,0,39.69,0
				c0.08,0,0.16-0.01,0.25-0.01c2-0.03,4.96-1.88,10.07-5.44l12.48-8.13C118.62,62.68,115.69,62.9,113.72,63.01z"/>
		</defs>
		<clipPath id="SVGID_2_">
			<use xlink:href="#SVGID_1_"  style="overflow:visible;"/>
		</clipPath>
		<g class="st1">
			<g>
				<linearGradient id="SVGID_3_" gradientUnits="userSpaceOnUse" x1="116.1822" y1="49.0365" x2="116.1822" y2="29.3034">
					<stop  offset="0" style="stop-color:#F7A600"/>
					<stop  offset="0.1798" style="stop-color:#FDC100"/>
					<stop  offset="0.3635" style="stop-color:#FFD500"/>
					<stop  offset="0.5464" style="stop-color:#FFE300"/>
					<stop  offset="0.7263" style="stop-color:#FFEB00"/>
					<stop  offset="0.9" style="stop-color:#FFED00"/>
				</linearGradient>
				<path class="st2" d="M124.81,29.37L61.63,70.54c-9.86,6.87,22.62,4.36,32.41-3.44c3.23,10.83,3.81,11.49,15.36,3.44l63.19-41.16
					H124.81z"/>
				<path class="st3" d="M105.16,42.18L61.63,70.54c-9.86,6.87,22.62,4.36,32.41-3.44c3.23,10.83,3.81,11.49,15.36,3.44l25.02-16.3
					L105.16,42.18z"/>
			</g>
			<g>
				<linearGradient id="SVGID_4_" gradientUnits="userSpaceOnUse" x1="66.7096" y1="75.4621" x2="66.7096" y2="19.5588">
					<stop  offset="0" style="stop-color:#F7A600"/>
					<stop  offset="0.1798" style="stop-color:#FDC100"/>
					<stop  offset="0.3635" style="stop-color:#FFD500"/>
					<stop  offset="0.5464" style="stop-color:#FFE300"/>
					<stop  offset="0.7263" style="stop-color:#FFEB00"/>
					<stop  offset="0.9" style="stop-color:#FFED00"/>
				</linearGradient>
				<path class="st4" d="M93.67,65.89c-3.57-11.99-6.26-22.72-10.16-34.25c-4.22-12.49-6.8-12.49-17.97-11.84
					c-5.75,0.33-20.04,1.62-25.82,2.2c-5.78,0.57-6.77,4.87-4.75,11.18c2.02,6.32,9.39,27.18,11.93,35.08
					c2.54,7.89,9.56,7.75,12.49,7.75c2.93,0,39.69,0,39.69,0c0.1,0,0.21-0.01,0.32-0.02C96.67,76.07,95.73,72.82,93.67,65.89z"/>
			</g>
		</g>
	</g>
	<g>
		<defs>
			<path id="SVGID_5_" d="M139.43,58.98c-5.78,0.57-20.07,1.86-25.82,2.2c-11.17,0.65-13.75,0.65-17.97-11.84
				c-2.37-7.03-4.3-13.76-6.25-20.66l-4.06,2.64l-0.06-0.21l-0.02-0.06c-4.53-13.41-7.85-13.79-19.82-13.09
				c-1.97,0.11-4.9,0.34-8.15,0.6l12.48-8.13c5.09-3.55,8.05-5.4,10.05-5.44c0.09-0.01,0.18-0.01,0.27-0.01c0,0,36.76,0,39.69,0
				c2.93,0,9.95-0.15,12.49,7.75c2.54,7.89,9.92,28.76,11.93,35.08C146.2,54.12,145.21,58.41,139.43,58.98z M38.8,50.13
				c-2.26-6.55-4.4-12.75-5.44-15.98L6.58,51.6h32.73C39.14,51.11,38.97,50.62,38.8,50.13z"/>
		</defs>
		<clipPath id="SVGID_6_">
			<use xlink:href="#SVGID_5_"  style="overflow:visible;"/>
		</clipPath>
		<g class="st5">
			<g>
				<linearGradient id="SVGID_7_" gradientUnits="userSpaceOnUse" x1="62.8655" y1="51.4428" x2="62.8655" y2="31.698">
					<stop  offset="0.1" style="stop-color:#9AC331"/>
					<stop  offset="0.241" style="stop-color:#99C131"/>
					<stop  offset="0.3871" style="stop-color:#93BA2F"/>
					<stop  offset="0.5356" style="stop-color:#8AAF2D"/>
					<stop  offset="0.6858" style="stop-color:#7D9E29"/>
					<stop  offset="0.8373" style="stop-color:#6A8823"/>
					<stop  offset="0.9878" style="stop-color:#526C1A"/>
					<stop  offset="1" style="stop-color:#506919"/>
				</linearGradient>
				<path class="st6" d="M83.61,9.14c-2.25-6.06-4.3-5.35-13.84,1.3L6.58,51.6h47.63l63.19-41.16C126.94,3.78,95.09,3.07,83.61,9.14
					z"/>
				<path class="st7" d="M83.61,9.14c-2.25-6.06-4.3-5.35-13.84,1.3l-26.09,17l30.57,11.12l43.15-28.11
					C122.35,7.61,95.09,3.07,83.61,9.14z"/>
			</g>
			<g>
				<linearGradient id="SVGID_8_" gradientUnits="userSpaceOnUse" x1="112.4465" y1="4.9774" x2="112.4465" y2="61.4567">
					<stop  offset="0" style="stop-color:#9AC331"/>
					<stop  offset="0.1567" style="stop-color:#99C131"/>
					<stop  offset="0.319" style="stop-color:#93BA2F"/>
					<stop  offset="0.484" style="stop-color:#8AAF2D"/>
					<stop  offset="0.6509" style="stop-color:#7D9E29"/>
					<stop  offset="0.8192" style="stop-color:#6A8823"/>
					<stop  offset="0.9865" style="stop-color:#526C1A"/>
					<stop  offset="1" style="stop-color:#506919"/>
				</linearGradient>
				<path class="st8" d="M139.43,58.98c5.78-0.57,6.77-4.87,4.75-11.18c-2.02-6.32-9.39-27.18-11.93-35.08
					c-2.54-7.89-9.56-7.75-12.49-7.75c-2.93,0-39.69,0-39.69,0c-0.1,0-0.21,0.01-0.32,0.02c2.73-0.1,3.67,3.16,5.73,10.09
					c3.57,11.99,6.26,22.72,10.16,34.25c4.22,12.49,6.8,12.49,17.97,11.84C119.36,60.85,133.65,59.56,139.43,58.98"/>
			</g>
		</g>
	</g>
</g>
</svg>
